<svg xmlns="http://www.w3.org/2000/svg" width="82.231" height="100" viewBox="0 0 82.231 100">
  <path d="M69.575,40.92l7.595,3.421,12.383-9.756L80.1,44.775l9.456,3.108,5.164-18.954L69.576,40.92Zm10.454,6.215-.559,5.78,3.3-4.226ZM49.1,77.024a32.911,32.911,0,0,1-3.3,1.679l.311.807A35.591,35.591,0,0,0,49.6,77.831c-.06-.063-.5-.807-.5-.807Zm4.232-2.857a22.359,22.359,0,0,1-2.8,1.926.448.448,0,1,0,.5.742A30.062,30.062,0,0,0,53.9,74.786a.335.335,0,0,0,.186-.249c0-.124,0-.248-.124-.311-.186-.247-.373-.247-.622-.061Zm4.978-4.661a.56.56,0,0,0-.623.063,20.429,20.429,0,0,1-2.613,2.983.44.44,0,0,0,0,.619.433.433,0,0,0,.2.116.442.442,0,0,0,.425-.114A25.613,25.613,0,0,0,58.438,70c.124-.063,0-.371-.124-.5Zm2.052-9.755a.4.4,0,0,0,.16.305.4.4,0,0,0,.339.066.342.342,0,0,0,.311-.187.41.41,0,0,0,.062-.371,7.258,7.258,0,0,0-2.115-4.6.47.47,0,0,0-.744.372c0,.124.062.248.186.248a7.369,7.369,0,0,1,1.8,4.164h0Zm-7.341-4.474a.475.475,0,0,0,.249-.063,5.836,5.836,0,0,1,3.671-.371c.249.063.5-.063.5-.312.063-.248-.062-.5-.311-.5a6.436,6.436,0,0,0-4.294.371c-.249.063-.311.372-.249.622a.737.737,0,0,0,.438.247Zm-2.49,4.6a6.8,6.8,0,0,1-.062-1.116l.435-1.429c.249-.372.435-.683.684-.994a.44.44,0,0,0,0-.619.432.432,0,0,0-.2-.116.439.439,0,0,0-.425.114A4.537,4.537,0,0,0,49.664,60a.446.446,0,0,0,.87-.124Zm.187,1.553a.428.428,0,0,0-.15.583c.008.014.017.027.026.039a11.169,11.169,0,0,0,1.866,2.05c.311.249.5.436.808.684a.562.562,0,0,0,.624-.063c.124-.125.062-.434-.063-.621-.311-.248-.5-.372-.808-.622a11.708,11.708,0,0,1-1.743-1.8c-.122-.311-.434-.372-.558-.248Zm7.031,5.22a.467.467,0,0,0,.435-.435c0-.248-.124-.434-.372-.434a11.659,11.659,0,0,1-2.613-.807.474.474,0,0,0-.373.87c.934.248,1.93.621,2.925.807ZM61.178,65.4c-.124.063-.373.063-.5.124A19.55,19.55,0,0,0,61.3,62.3a.436.436,0,0,0-.435-.436h0a.435.435,0,0,0-.435.436h0a11.619,11.619,0,0,1-.745,3.479h-.5a.435.435,0,1,0,0,.869h.124a8.065,8.065,0,0,1-.623,1.306.507.507,0,0,0,.249.622.72.72,0,0,0,.622-.125,10.82,10.82,0,0,0,.809-1.739l1.117-.248a.41.41,0,0,0,.313-.488l0-.009c-.062-.5-.373-.623-.622-.56h0Zm5.352-3.049a21.876,21.876,0,0,1-3.111,2.237.448.448,0,0,0,.5.743,17.712,17.712,0,0,0,3.3-2.361.335.335,0,0,0,.186-.248c0-.125,0-.249-.124-.312-.313-.243-.625-.243-.749-.056Zm4.6-4.536a.561.561,0,0,0-.622.063c-.745.933-1.494,1.865-2.365,2.8a.44.44,0,0,0,0,.62l0,0a.441.441,0,0,0,.623,0c.808-.807,1.555-1.8,2.426-2.857a.474.474,0,0,0,.124-.312.527.527,0,0,0-.188-.309l0,0Zm3.672-5.779a.469.469,0,0,0-.623.124c-.684,1.3-1.494,2.485-2.24,3.666a.442.442,0,0,0,.684.56c.808-1.182,1.555-2.486,2.3-3.793a.326.326,0,0,0,.025-.46.323.323,0,0,0-.151-.1ZM77.668,46.2a.51.51,0,0,0-.622.248s-.624,1.429-1.557,3.355a.474.474,0,0,0,.724.562.483.483,0,0,0,.148-.189c1.057-2.05,1.68-3.42,1.68-3.48,0-.121-.128-.307-.376-.494l0,0ZM26.332,111.762H24.839V94.424h1.493v17.337Zm.311-18.7-1.43-.435L28.2,83.675q2.078-6.1,4.045-12.242l1.43.435q-2.078,6.1-4.044,12.241Z" transform="translate(-12.486 -14.542)" fill="gray"/>
  <path d="M24.832,135.349a4.007,4.007,0,0,1,.311-1.791l.062-.123,1.431.432-.062.247a2.847,2.847,0,0,0-.249,1.174Zm2.425,19.817a2.339,2.339,0,0,1-1.742-.618,2.422,2.422,0,0,1-.622-2.037v-.124h1.492v.124c0,.369,0,.739.124.864h.124c.124.123.5.123.871.123H80.9c.311,0,.5-.062.5-.124l.062-.061c.062,0,.124-.123.124-.494V135.225a2.774,2.774,0,0,0-.062-.739c-.995-2.9-1.929-5.864-2.924-8.642-1.432-4.383-2.925-8.767-4.419-13.149a.513.513,0,0,0-.5-.432H34.911a2.812,2.812,0,0,0-.744.062.722.722,0,0,0-.373.369l-1.492-.309a2.094,2.094,0,0,1,1.43-1.359,3.792,3.792,0,0,1,1.182-.062H73.488a2.207,2.207,0,0,1,2.052,1.482c1.494,4.321,2.925,8.767,4.418,13.089l2.925,8.766a2.545,2.545,0,0,1,.062,1.173v17.472a2.275,2.275,0,0,1-.622,1.666,2.584,2.584,0,0,1-1.681.618H27.383a.193.193,0,0,0-.124-.062v0Z" transform="translate(-12.479 -55.23)" fill="gray"/>
  <path d="M36.886,87.7a7.937,7.937,0,0,1-3.317-6.085c0-.248,0-.621-.125-.744l-.063-.063c-.063-.063-.25-.063-.5-.063H16.175a.752.752,0,0,1-.658-.37.741.741,0,0,1,0-.751.752.752,0,0,1,.657-.37H32.758a2.151,2.151,0,0,1,1.563.5,2.282,2.282,0,0,1,.689,1.8,6.543,6.543,0,0,0,2.753,4.969,7.031,7.031,0,0,0,4.255,1.3,6.609,6.609,0,0,0,4.7-2.238,7.243,7.243,0,0,0,1.69-4.162,2.348,2.348,0,0,1,.625-1.678,2.3,2.3,0,0,1,1.69-.62H67.3a.745.745,0,1,1,0,1.491H50.714c-.374,0-.5.063-.5.125l-.063.062c-.125.063-.125.435-.125.621a7.892,7.892,0,0,1-2.065,5.031,8.174,8.174,0,0,1-5.756,2.732,2.449,2.449,0,0,1-.563.063S38.253,88.737,36.886,87.7ZM11.859,47.952V46.585a.641.641,0,0,0-.188-.5.648.648,0,0,0-.5-.188.691.691,0,0,0-.688.683v1.367H9.1a.649.649,0,0,0-.5.186.641.641,0,0,0-.188.5.692.692,0,0,0,.688.684h1.376v1.365a.684.684,0,0,0,.338.612.694.694,0,0,0,.7,0,.683.683,0,0,0,.338-.611V49.317h1.375a.691.691,0,0,0,.618-.334.681.681,0,0,0,0-.7.69.69,0,0,0-.617-.335H11.859ZM23.935,31.618H26a1.054,1.054,0,0,1,.754.305,1.044,1.044,0,0,1,.31.751A1.093,1.093,0,0,1,26,33.728H23.935v2.05a1.04,1.04,0,0,1-.309.75,1.062,1.062,0,0,1-.755.307,1.163,1.163,0,0,1-.749-.311,1.027,1.027,0,0,1-.313-.743V33.731H19.744A1.161,1.161,0,0,1,19,33.421a1.027,1.027,0,0,1-.313-.744,1.093,1.093,0,0,1,1.064-1.056h2.065v-2.05a1.064,1.064,0,0,1,2.127,0l0,2.045ZM70.927,0a4.5,4.5,0,0,0-4.162,2.76,4.448,4.448,0,0,0,.976,4.874,4.53,4.53,0,0,0,4.911.97,4.471,4.471,0,0,0,2.78-4.133A4.55,4.55,0,0,0,70.927,0Zm1.939,5.528a2.213,2.213,0,0,1-1.939,1.115,2.257,2.257,0,0,1-1.982-1.108,2.222,2.222,0,0,1,0-2.257,2.257,2.257,0,0,1,1.982-1.107,2.212,2.212,0,0,1,1.939,1.115,2.361,2.361,0,0,1,0,2.241ZM3.6,16.522a3.708,3.708,0,0,0-3.13,1.8,3.588,3.588,0,1,0,3.129-1.8h0Zm1.564,4.472a1.786,1.786,0,0,1-1.564.87,1.817,1.817,0,0,1-1.6-.889,1.788,1.788,0,0,1,0-1.824,1.817,1.817,0,0,1,1.6-.889,1.787,1.787,0,0,1,1.564.87A1.967,1.967,0,0,1,5.163,20.993Z" transform="translate(0 0)" fill="gray"/>
</svg>
