<?xml version="1.0" encoding="utf-8"?>
<!-- Generator: Adobe Illustrator 23.1.1, SVG Export Plug-In . SVG Version: 6.00 Build 0)  -->
<svg version="1.1" id="图层_1" xmlns="http://www.w3.org/2000/svg" xmlns:xlink="http://www.w3.org/1999/xlink" x="0px" y="0px"
	 viewBox="0 0 300 201.6" style="enable-background:new 0 0 300 201.6;" xml:space="preserve" width="120" height="110">
<style type="text/css">
	.st0{fill:#D8D8D8;}
	.st1{opacity:0.4;}
	.st2{fill:#999999;}
	.st3{fill:#FFFFFF;stroke:#999999;stroke-width:3;stroke-miterlimit:10;}
	.st4{fill:#FFFFFF;}
	.st5{fill:#808080;}
	.st6{fill:none;}
	.st7{fill:#F2F2F2;}
	.st8{fill:#FF9191;}
</style>
<g id="组_13171" transform="translate(299.511 654.577)">
	<g id="组_13160">
		<g id="组_13156">
			<g id="组_13152">
				<g id="组_13150">
					<rect id="矩形_7366" x="-101.7" y="-515.8" class="st0" width="1.9" height="2.4"/>
				</g>
				<g id="组_13151">
					<path id="路径_7899" class="st0" d="M-21.6-513.4h-71.1v-2.4h71.1c3-0.1,5.2-2.6,5.1-5.6v-73.1c0.1-3-2.2-5.4-5.1-5.6h-92.8
						c-3,0.1-5.2,2.6-5.1,5.6v73.1c-0.1,3,2.2,5.4,5.1,5.6h12.7v2.4h-12.7c-4.3-0.1-7.7-3.7-7.6-8v-73.1c-0.1-4.3,3.2-7.8,7.6-8
						h92.8c4.3,0.1,7.7,3.7,7.6,8v73.1C-13.9-517.1-17.3-513.5-21.6-513.4z"/>
				</g>
			</g>
			<g id="组_13153">
				<circle id="椭圆_848" class="st0" cx="-108.2" cy="-592.9" r="2.3"/>
			</g>
			<g id="组_13154">
				<circle id="椭圆_849" class="st0" cx="-99.1" cy="-592.9" r="2.3"/>
			</g>
			<g id="组_13155">
				<circle id="椭圆_850" class="st0" cx="-89.9" cy="-592.9" r="2.3"/>
			</g>
		</g>
		<g id="组_13159">
			<g id="组_13158">
				<g id="组_13157">
					<path id="路径_7900" class="st0" d="M-28.3-606.3v-5.3c0.1-4.3-3.2-7.8-7.6-8h-92.8c-4.3,0.1-7.7,3.7-7.6,8v71.5
						c-0.1,4.3,3.2,7.8,7.6,8h5.6l-0.2-2.4h-5.4c-3-0.1-5.2-2.6-5.1-5.6v-71.5c-0.1-3,2.2-5.4,5.1-5.6h92.8c3,0.1,5.2,2.6,5.1,5.6
						v5.5"/>
				</g>
			</g>
		</g>
	</g>
	<g id="组_13167">
		<g id="组_13166" class="st1">
			<g id="组_13161">
				<g id="直线_451">
					<rect x="-250.1" y="-510.6" class="st2" width="1.9" height="2.7"/>
				</g>
				<g id="路径_7901">
					<path class="st3" d="M-248.2-509.2"/>
				</g>
				<g id="路径_7902">
					<path class="st4" d="M-250.1-509.2H-263c-3.6-0.1-6.5-3.2-6.4-6.9v-62.3c-0.1-3.6,2.7-6.7,6.4-6.9h93.6
						c3.6,0.1,6.5,3.2,6.4,6.9v62.3c0.1,3.6-2.7,6.7-6.4,6.9h-71.8"/>
					<path class="st2" d="M-241.1-507.9v-2.7h71.8c2.9-0.1,5.1-2.5,5-5.4v-62.4c0.1-3-2.2-5.4-5-5.5h-93.6c-2.9,0.1-5.1,2.5-5,5.4
						v62.4c-0.1,3,2.2,5.4,5,5.5h12.8v2.7H-263c-4.4-0.2-7.8-3.9-7.8-8.2v-62.3c-0.2-4.3,3.3-8,7.7-8.2h93.7
						c4.4,0.2,7.8,3.9,7.8,8.2v62.3c0.2,4.3-3.3,8-7.7,8.2L-241.1-507.9z"/>
				</g>
				<g id="直线_452">
					<rect x="-260.8" y="-525.4" class="st2" width="89.4" height="2.7"/>
				</g>
				<g id="直线_453">
					<rect x="-218.5" y="-504.6" class="st2" width="2.7" height="6.9"/>
				</g>
				<g id="直线_454">
					<rect x="-237.5" y="-495.7" class="st2" width="40.4" height="2.7"/>
				</g>
			</g>
			<g id="组_13162">
				<g id="路径_7903">
					<path class="st3" d="M-227.5-576.3"/>
				</g>
				<g id="路径_7904">
					<path class="st4" d="M-227.5-576.3v-53.9c0-2.5,2-4.5,4.5-4.5h29.6c2.5,0,4.5,2,4.5,4.5v63.3c0,2.5-2,4.5-4.5,4.5h-29.6
						c-2.5,0-4.5-2-4.5-4.5v-5.3"/>
					<path class="st2" d="M-193.3-561h-29.6c-3.2,0-5.9-2.6-5.9-5.9v-5.3h2.7v5.3c0,1.7,1.4,3.2,3.2,3.2h29.6c1.7,0,3.2-1.4,3.2-3.2
						v-63.3c0-1.7-1.4-3.2-3.2-3.2h-29.6c-1.7,0-3.2,1.4-3.2,3.2v53.9h-2.7v-53.9c0-3.2,2.6-5.9,5.9-5.9h29.6c3.2,0,5.9,2.6,5.9,5.9
						v63.3C-187.4-563.6-190-561-193.3-561z"/>
				</g>
				<g id="直线_455">
					<rect x="-224.6" y="-629" class="st2" width="32.3" height="2.7"/>
				</g>
				<g id="直线_456">
					<rect x="-224.3" y="-573.5" class="st2" width="32.3" height="2.7"/>
				</g>
				<g id="直线_457">
					<rect x="-213" y="-568.7" class="st2" width="10.5" height="2.7"/>
				</g>
			</g>
			<g id="组_13163">
				<g id="直线_458">

						<rect x="-239.6" y="-656.1" transform="matrix(0.7071 -0.7071 0.7071 0.7071 388.0923 -358.1341)" class="st5" width="2.7" height="17.1"/>
				</g>
				<g id="直线_459">

						<rect x="-246.8" y="-648.9" transform="matrix(0.7071 -0.7071 0.7071 0.7071 388.0923 -358.1341)" class="st5" width="17.1" height="2.7"/>
				</g>
			</g>
			<g id="组_13164">
				<g id="直线_460">

						<rect x="-7.9" y="-484.8" transform="matrix(0.7071 -0.7071 0.7071 0.7071 334.8111 -144.0977)" class="st5" width="2.7" height="17.1"/>
				</g>
				<g id="直线_461">

						<rect x="-15.1" y="-477.6" transform="matrix(0.7071 -0.7071 0.7071 0.7071 334.8215 -144.0927)" class="st5" width="17.1" height="2.7"/>
				</g>
			</g>
			<g id="组_13165">
				<g id="直线_462">

						<rect x="-296.4" y="-543.4" transform="matrix(0.7071 -0.7071 0.7071 0.7071 294.2919 -366.3458)" class="st5" width="2.7" height="9.9"/>
				</g>
				<g id="直线_463">

						<rect x="-300" y="-539.8" transform="matrix(0.7071 -0.7071 0.7071 0.7071 294.3049 -366.3473)" class="st5" width="9.9" height="2.7"/>
				</g>
			</g>
		</g>
	</g>
	<g id="组_9984">
		<g id="组_9962">
			<g id="组_9960">
				<line id="直线_373" class="st6" x1="-185.8" y1="-482.2" x2="-188.9" y2="-482.2"/>
			</g>
			<g id="组_9961">
				<rect id="矩形_6966" x="-188.9" y="-484.1" class="st7" width="3" height="3.8"/>
			</g>
		</g>
		<g id="组_9964">
			<g id="组_9963">
				<g id="路径_5805">
					<path class="st3" d="M-185.8-482.2"/>
				</g>
			</g>
		</g>
		<g id="组_9977">
			<g id="组_9971">
				<path id="矩形_6967" class="st4" d="M-211.3-600.6h151.7c4,0,7.2,3.2,7.2,7.2v101.7c0,4-3.2,7.2-7.2,7.2h-151.7
					c-4,0-7.2-3.2-7.2-7.2v-101.7C-218.5-597.4-215.3-600.6-211.3-600.6z"/>
			</g>
			<g id="组_9975">
				<g id="组_9972">
					<circle id="椭圆_691" class="st5" cx="-197.9" cy="-587.8" r="3.5"/>
				</g>
				<g id="组_9973">
					<circle id="椭圆_692" class="st5" cx="-183.6" cy="-587.8" r="3.5"/>
				</g>
				<g id="组_9974">
					<circle id="椭圆_693" class="st5" cx="-169.4" cy="-587.8" r="3.5"/>
				</g>
			</g>
			<g id="组_9976">
				<path id="路径_5808" class="st5" d="M-54.1-531.4v-59.2c0-4.9-3.6-8.8-8.1-8.8H-209c-4.5,0-8.1,4-8.1,8.8v97.7
					c0,4.9,3.6,8.8,8.1,8.8h101.1v3.8H-209c-6.6,0-11.9-5.7-11.9-12.6v-97.7c0-6.9,5.3-12.6,11.9-12.6h146.7
					c6.6,0,11.9,5.7,11.9,12.6l0.2,61L-54.1-531.4z"/>
			</g>
		</g>
		<g id="组_9980">
			<g id="组_9978">
				<line id="直线_377" class="st6" x1="-137.3" y1="-475.1" x2="-137.3" y2="-464.3"/>
			</g>
			<g id="组_9979">
				<rect id="矩形_6968" x="-139.2" y="-475.1" class="st5" width="3.8" height="10.7"/>
			</g>
		</g>
		<g id="组_9983">
			<g id="组_9981">
				<line id="直线_378" class="st6" x1="-168.9" y1="-459" x2="-105.5" y2="-459"/>
			</g>
			<g id="组_9982">
				<rect id="矩形_6969" x="-168.9" y="-460.9" class="st5" width="63.4" height="3.8"/>
			</g>
		</g>
	</g>
	<g id="路径_7905">
		<path class="st4" d="M-118.1-560.4v-1.9c-14.2,0-25.6,11.5-25.6,25.6c0,5.2-4.2,9.5-9.5,9.5l0,0v1.9c-6.3,0-11.4-5.1-11.4-11.4
			l0,0c0-6.3,5.1-11.4,11.4-11.4l0,0c3.3,0,6.5,1.4,8.7,4c1.2-4.1,3.2-7.9,6.1-11.1c-4.2-3.3-9.4-5.1-14.8-5.1
			c-13.1,0-23.7,10.6-23.7,23.7l0,0c0,13.1,10.6,23.7,23.7,23.7l0,0v1.9c14.2,0,25.6-11.5,25.6-25.6c0-5.2,4.2-9.5,9.5-9.5v-1.9
			c6.3,0,11.4,5.1,11.4,11.4c0,6.3-5.1,11.4-11.4,11.4c-3.3,0-6.5-1.4-8.7-4c-1.2,4.1-3.2,7.9-6.1,11.1c4.2,3.3,9.4,5.1,14.8,5.1
			c13.1,0,23.7-10.6,23.7-23.7l0,0C-94.4-549.8-105-560.4-118.1-560.4z"/>
		<path class="st2" d="M-154.6-509.7v-1.9c-13.2-0.7-23.7-11.6-23.7-25.1c0-13.8,11.3-25.1,25.1-25.1l0,0c5.7,0,11.2,2,15.6,5.5
			l0.5,0.5c4.9-4.8,11.5-7.8,18.9-7.8h1.4v1.9c13.2,0.7,23.7,11.6,23.7,25.1c0,6.7-2.6,13-7.3,17.8c-4.8,4.8-11,7.3-17.8,7.3l0,0
			c-5.7,0-11.2-2-15.6-5.5l-0.5-0.5c-4.9,4.8-11.5,7.8-18.9,7.8H-154.6z M-153.2-559L-153.2-559c-12.4,0-22.4,10-22.4,22.4
			c0,12.4,10,22.4,22.4,22.4h1.4v1.9c12.7-0.7,22.9-11.3,22.9-24.3c0-5.5,4.1-10.1,9.5-10.7v-2h1.4l0,0c7,0,12.7,5.7,12.7,12.7
			s-5.7,12.7-12.7,12.7l0,0c-3,0-5.8-1-8-2.8c-1.1,3.1-2.8,6-4.8,8.4c3.7,2.6,8.2,4.1,12.8,4.1l0,0c6,0,11.6-2.3,15.8-6.6
			c4.2-4.2,6.6-9.8,6.6-15.8c0-12.4-10-22.4-22.4-22.4h-1.4v-1.9c-12.7,0.7-22.9,11.3-22.9,24.3c0,5.5-4.1,10.1-9.5,10.7v2h-1.4l0,0
			c-3.4,0-6.6-1.4-9-3.7c-2.4-2.4-3.7-5.6-3.7-9s1.4-6.6,3.7-9c2.4-2.4,5.6-3.7,9-3.7l0,0c3,0,5.8,1,8,2.8c1.1-3.1,2.8-6,4.8-8.4
			C-144.1-557.7-148.6-559-153.2-559z M-126.7-531.3l1.1,1.3c1.9,2.3,4.7,3.5,7.6,3.5l0,0c5.5,0,10-4.5,10-10c0-5-3.8-9.3-8.7-9.9
			v1.8h-1.4c-4.5,0-8.1,3.6-8.1,8.1C-126.2-534.9-126.4-533-126.7-531.3z M-153.2-546.8c-2.7,0-5.2,1.1-7.1,3c-1.9,1.9-3,4.4-3,7.1
			c0,2.7,1.1,5.2,3,7.1c1.5,1.5,3.6,2.5,5.8,2.9v-1.8h1.4c4.5,0,8.1-3.6,8.1-8.1c0-1.8,0.2-3.6,0.5-5.3l-1.1-1.3
			C-147.5-545.4-150.3-546.8-153.2-546.8C-153.2-546.8-153.2-546.8-153.2-546.8z"/>
	</g>
	<g id="组_13170">
		<ellipse id="椭圆_851" class="st8" cx="-62.8" cy="-487.6" rx="29.8" ry="30.1"/>
		<g id="组_13169">
			<g id="组_491">
				<path id="Mask-2" d="M-48.1-490.4l-6,6l-2.9-2.9l6-6c2.6-2.6,2.6-6.8,0-9.4l0,0c-2.6-2.6-6.8-2.6-9.4,0l-6,6l-2.9-2.9l6-6
					c4.1-4.1,11-4.1,15.1,0l0,0C-43.9-501.4-43.9-494.6-48.1-490.4L-48.1-490.4z M-63.2-475.3l-6,6c-4.1,4.1-11,4.1-15.1,0l0,0
					c-4.1-4.1-4.1-11,0-15.1l0,0l6-6l2.9,2.9l-6,6c-2.6,2.6-2.6,6.8,0,9.4l0,0c2.6,2.6,6.8,2.6,9.4,0l0,0l6-6L-63.2-475.3z
					 M-78-502.7l11.5,11.5l-3.1,3.1L-81-499.6L-78-502.7z M-63.3-487.9l12,12l-3.1,3.1l-12-12L-63.3-487.9z"/>
			</g>
			<g id="组_13168">
				<path id="路径_7906" d="M-66.4-521.5c-18.9,0-34.3,15.3-34.3,34.3l0,0c0,18.9,15.3,34.3,34.3,34.3l0,0
					c18.9,0,34.3-15.3,34.3-34.3l0,0C-32.1-506.2-47.5-521.5-66.4-521.5L-66.4-521.5z M-66.4-457.5c-16.4,0-29.8-13.3-29.8-29.8
					c0-16.4,13.3-29.8,29.8-29.8s29.8,13.3,29.8,29.8C-36.7-470.8-50-457.5-66.4-457.5z"/>
			</g>
		</g>
	</g>
</g>
</svg>
